<svg width="30" height="30" viewBox="0 0 30 30" fill="none" xmlns="http://www.w3.org/2000/svg">
<path d="M15 30C23.2843 30 30 23.2843 30 15C30 6.71573 23.2843 0 15 0C6.71573 0 0 6.71573 0 15C0 23.2843 6.71573 30 15 30Z" fill="black"/>
<path d="M19.6557 9.32533C19.0859 9.32533 18.6237 9.78763 18.6237 10.3574C18.6237 10.9273 19.0859 11.3896 19.6557 11.3896C20.2255 11.3896 20.6878 10.9273 20.6878 10.3574C20.6878 9.78763 20.2255 9.32533 19.6557 9.32533Z" fill="white"/>
<path d="M15.0716 10.6478C12.6827 10.6478 10.741 12.5916 10.741 14.9783C10.741 17.3651 12.6848 19.3089 15.0716 19.3089C17.4583 19.3089 19.4021 17.3651 19.4021 14.9783C19.4021 12.5916 17.4583 10.6478 15.0716 10.6478ZM15.0716 17.7543C13.5406 17.7543 12.2977 16.5093 12.2977 14.9805C12.2977 13.4517 13.5427 12.2067 15.0716 12.2067C16.6004 12.2067 17.8453 13.4517 17.8453 14.9805C17.8453 16.5093 16.6004 17.7543 15.0716 17.7543Z" fill="white"/>
<path d="M18.5094 23.7729H11.4867C8.57313 23.7729 6.20361 21.4033 6.20361 18.4897V11.4671C6.20361 8.55353 8.57313 6.18398 11.4867 6.18398H18.5094C21.4229 6.18398 23.7925 8.55353 23.7925 11.4671V18.4897C23.7925 21.4033 21.4229 23.7729 18.5094 23.7729ZM11.4867 7.83965C9.48698 7.83965 7.85928 9.46737 7.85928 11.4671V18.4897C7.85928 20.4895 9.48698 22.1172 11.4867 22.1172H18.5094C20.5091 22.1172 22.1368 20.4895 22.1368 18.4897V11.4671C22.1368 9.46522 20.5091 7.83965 18.5094 7.83965H11.4867Z" fill="white"/>
</svg>
