<svg width="30" height="31" viewBox="0 0 30 31" fill="none" xmlns="http://www.w3.org/2000/svg">
<g clip-path="url(#clip0_7_19)">
<path d="M15 30.1544C23.2843 30.1544 30 23.4387 30 15.1544C30 6.87015 23.2843 0.154419 15 0.154419C6.71573 0.154419 0 6.87015 0 15.1544C0 23.4387 6.71573 30.1544 15 30.1544Z" fill="url(#paint0_linear_7_19)"/>
<path fill-rule="evenodd" clip-rule="evenodd" d="M6.78984 14.9961C11.1626 13.0909 14.0785 11.8349 15.5375 11.2281C19.7032 9.49544 20.5687 9.19446 21.1329 9.18452C21.257 9.18234 21.5345 9.21309 21.7142 9.35892C21.8659 9.48205 21.9077 9.64839 21.9277 9.76514C21.9476 9.88188 21.9725 10.1478 21.9527 10.3556C21.727 12.7275 20.7502 18.4833 20.2533 21.1399C20.043 22.2639 19.629 22.6408 19.2282 22.6777C18.3571 22.7579 17.6957 22.102 16.852 21.549C15.5318 20.6836 14.786 20.1449 13.5045 19.3004C12.0235 18.3245 12.9836 17.7881 13.8276 16.9115C14.0484 16.6821 17.8864 13.1911 17.9607 12.8744C17.97 12.8348 17.9786 12.6872 17.8909 12.6092C17.8032 12.5313 17.6738 12.5579 17.5804 12.5791C17.4479 12.6092 15.3389 14.0032 11.2533 16.7611C10.6546 17.1722 10.1124 17.3725 9.62658 17.362C9.091 17.3504 8.06077 17.0591 7.29489 16.8102C6.35551 16.5048 5.60892 16.3434 5.67393 15.8248C5.70779 15.5547 6.07976 15.2784 6.78984 14.9961Z" fill="white"/>
</g>
<defs>
<linearGradient id="paint0_linear_7_19" x1="15" y1="0.154419" x2="15" y2="29.9319" gradientUnits="userSpaceOnUse">
<stop/>
<stop offset="1"/>
</linearGradient>
<clipPath id="clip0_7_19">
<rect width="30" height="30" fill="white" transform="translate(0 0.154419)"/>
</clipPath>
</defs>
</svg>
