<svg width="30" height="31" viewBox="0 0 30 31" fill="none" xmlns="http://www.w3.org/2000/svg">
<g clip-path="url(#clip0_7_18)">
<path d="M0 14.5544C0 7.76617 0 4.37208 2.10883 2.26325C4.21766 0.154419 7.61175 0.154419 14.4 0.154419H15.6C22.3883 0.154419 25.7823 0.154419 27.8912 2.26325C30 4.37208 30 7.76617 30 14.5544V15.7544C30 22.5427 30 25.9367 27.8912 28.0456C25.7823 30.1544 22.3883 30.1544 15.6 30.1544H14.4C7.61175 30.1544 4.21766 30.1544 2.10883 28.0456C0 25.9367 0 22.5427 0 15.7544V14.5544Z" fill="black"/>
<path d="M15.9625 21.767C9.125 21.767 5.22506 17.0795 5.06256 9.27948H8.48756C8.60006 15.0045 11.125 17.4295 13.125 17.9295V9.27948H16.3501V14.217C18.3251 14.0045 20.3999 11.7545 21.0999 9.27948H24.3249C23.7874 12.3295 21.5374 14.5795 19.9374 15.5045C21.5374 16.2545 24.1001 18.217 25.0751 21.767H21.5249C20.7624 19.392 18.8626 17.5545 16.3501 17.3045V21.767H15.9625Z" fill="white"/>
</g>
<defs>
<clipPath id="clip0_7_18">
<rect width="30" height="30" fill="white" transform="translate(0 0.154419)"/>
</clipPath>
</defs>
</svg>
