<svg width="46" height="46" viewBox="0 0 46 46" fill="none" xmlns="http://www.w3.org/2000/svg">
<path d="M34.5 34.5C40.8513 28.1487 40.8513 17.8513 34.5 11.5C28.1487 5.14873 17.8513 5.14873 11.5 11.5C5.14873 17.8513 5.14873 28.1487 11.5 34.5C17.8513 40.8513 28.1487 40.8513 34.5 34.5Z" fill="#E8D3D3"/>
<path d="M14.212 32.204L15.5689 27.145C14.8019 25.7602 14.3962 24.2075 14.3962 22.6315C14.3962 17.4816 18.5879 13.2898 23.7379 13.2898C28.8878 13.2898 33.0796 17.4816 33.0796 22.6315C33.0796 27.7814 28.8878 31.9732 23.7379 31.9732C22.1922 31.9732 20.6652 31.5839 19.2967 30.8402L14.212 32.2017V32.204ZM19.5508 28.9448L19.8702 29.1359C21.0452 29.8353 22.3834 30.206 23.7379 30.206C27.9156 30.206 31.3147 26.8069 31.3147 22.6292C31.3147 18.4514 27.9156 15.0523 23.7379 15.0523C19.5601 15.0523 16.161 18.4514 16.161 22.6292C16.161 24.0093 16.5433 25.3662 17.2684 26.5575L17.4642 26.8792L16.7066 29.7048L19.5485 28.9424L19.5508 28.9448Z" fill="black"/>
<path fill-rule="evenodd" clip-rule="evenodd" d="M27.2138 23.9301C26.8291 23.6993 26.3279 23.4429 25.8756 23.6294C25.5282 23.7716 25.3067 24.3148 25.0806 24.5922C24.964 24.7344 24.8265 24.7577 24.6493 24.6855C23.3437 24.1656 22.3459 23.296 21.6255 22.0954C21.5043 21.9088 21.5253 21.762 21.6722 21.5894C21.889 21.333 22.1617 21.0416 22.2223 20.6965C22.2806 20.3515 22.1198 19.9482 21.9776 19.6404C21.7957 19.2488 21.5906 18.6869 21.1989 18.4655C20.8375 18.2603 20.3619 18.3745 20.0379 18.638C19.483 19.0903 19.2126 19.799 19.2219 20.5031C19.2219 20.7035 19.2499 20.9017 19.2965 21.0952C19.4084 21.5591 19.6229 21.9928 19.8654 22.4031C20.0472 22.7131 20.2454 23.0139 20.4575 23.3053C21.1546 24.2542 22.0242 25.0772 23.029 25.6926C23.5303 26.0004 24.0711 26.2708 24.633 26.455C25.2601 26.6624 25.8196 26.8793 26.5004 26.7487C27.2114 26.6135 27.9108 26.1752 28.1929 25.4898C28.2768 25.287 28.3188 25.0608 28.2722 24.8463C28.1766 24.4034 27.5775 24.1399 27.2184 23.9278L27.2138 23.9301Z" fill="black"/>
</svg>
