<svg width="297" height="298" viewBox="0 0 297 298" fill="none" xmlns="http://www.w3.org/2000/svg">
<g filter="url(#filter0_d_16_105)">
<path d="M84.6036 115.639C80.7456 99.5821 94.5639 84.8124 110.842 87.5942L207.907 104.183C225.962 107.268 233.342 129.192 220.828 142.567L146.768 221.727C134.254 235.102 111.888 229.196 107.609 211.386L84.6036 115.639Z" fill="#E8D3D3"/>
<g filter="url(#filter1_i_16_105)">
<circle cx="102.5" cy="106.5" r="7.5" fill="#ECE9E9"/>
</g>
<path d="M113.944 149.857L111.843 152.15C111.507 151.92 111.165 151.764 110.817 151.682C110.464 151.597 110.114 151.58 109.764 151.633C109.414 151.685 109.074 151.803 108.744 151.989C108.417 152.171 108.112 152.415 107.831 152.722C107.322 153.277 107.017 153.887 106.916 154.552C106.81 155.213 106.916 155.897 107.231 156.604C107.544 157.308 108.071 158 108.815 158.681C109.58 159.382 110.326 159.857 111.054 160.107C111.785 160.353 112.472 160.392 113.115 160.223C113.758 160.054 114.327 159.699 114.823 159.158C115.101 158.854 115.318 158.537 115.475 158.205C115.634 157.869 115.73 157.53 115.762 157.187C115.791 156.84 115.754 156.498 115.652 156.161C115.553 155.82 115.385 155.492 115.147 155.178L117.259 152.894C117.697 153.404 118.035 153.988 118.275 154.644C118.515 155.294 118.632 155.982 118.627 156.71C118.621 157.431 118.472 158.161 118.18 158.901C117.887 159.634 117.425 160.345 116.795 161.032C115.918 161.989 114.918 162.646 113.794 163.003C112.674 163.357 111.503 163.376 110.283 163.061C109.066 162.742 107.875 162.049 106.709 160.98C105.539 159.909 104.746 158.777 104.328 157.585C103.911 156.394 103.833 155.224 104.095 154.077C104.353 152.926 104.914 151.88 105.777 150.937C106.347 150.316 106.962 149.82 107.623 149.449C108.287 149.075 108.975 148.835 109.688 148.73C110.397 148.622 111.11 148.66 111.829 148.843C112.55 149.023 113.256 149.361 113.944 149.857ZM122.365 154.659L114.322 147.289L116.366 145.058L119.487 147.918L120.063 147.29L118.948 142.241L121.347 139.623L122.731 146.123L129.419 146.962L126.991 149.611L122.318 148.981L121.555 149.813L124.409 152.428L122.365 154.659ZM129.292 141.191L126.846 133.622L128.861 131.423L136.904 138.793L134.956 140.919L129.84 136.231L132.312 143.804L130.282 146.019L122.239 138.649L124.192 136.518L129.292 141.191ZM140.323 139.792L136.197 136.011L136.763 135.393C136.814 135.113 136.767 134.807 136.622 134.475C136.48 134.139 136.275 133.784 136.008 133.411C135.743 133.033 135.437 132.65 135.088 132.259C134.739 131.862 134.381 131.468 134.016 131.075L131.579 128.456L137.231 122.288L143.504 128.036L144.646 126.79L148.773 130.571L146.825 132.697L144.468 130.538L139.963 135.455L142.319 137.614L140.323 139.792ZM138.797 133.173L141.576 130.141L137.02 125.967L135.033 128.135L135.868 129.053C136.672 129.9 137.323 130.654 137.821 131.316C138.316 131.974 138.641 132.594 138.797 133.173ZM147.607 127.112L139.564 119.742L141.608 117.511L144.729 120.371L145.305 119.743L144.19 114.694L146.589 112.076L147.974 118.575L154.661 119.415L152.233 122.064L147.561 121.434L146.798 122.266L149.652 124.881L147.607 127.112ZM154.535 113.644L152.088 106.075L154.103 103.876L162.146 111.246L160.198 113.372L155.082 108.684L157.554 116.257L155.525 118.472L147.482 111.102L149.434 108.971L154.535 113.644ZM136.83 208.733L132.703 204.952L133.27 204.334C133.321 204.054 133.274 203.747 133.129 203.415C132.987 203.08 132.782 202.725 132.514 202.351C132.25 201.974 131.943 201.59 131.594 201.2C131.245 200.803 130.888 200.408 130.522 200.015L128.086 197.397L133.738 191.229L140.011 196.977L141.153 195.731L145.279 199.512L143.331 201.638L140.975 199.478L136.469 204.395L138.826 206.555L136.83 208.733ZM135.304 202.114L138.082 199.082L133.527 194.907L131.54 197.075L132.374 197.994C133.179 198.84 133.83 199.594 134.328 200.256C134.823 200.915 135.148 201.534 135.304 202.114ZM147.601 192.562C146.856 193.376 146.038 193.921 145.149 194.198C144.259 194.468 143.357 194.479 142.441 194.23C141.522 193.979 140.65 193.476 139.826 192.721C138.996 191.96 138.417 191.134 138.09 190.243C137.759 189.349 137.691 188.449 137.886 187.543C138.081 186.629 138.551 185.766 139.296 184.953C140.042 184.139 140.859 183.597 141.749 183.327C142.638 183.051 143.542 183.038 144.462 183.289C145.377 183.538 146.251 184.042 147.081 184.804C147.905 185.559 148.482 186.383 148.813 187.277C149.14 188.167 149.206 189.069 149.012 189.982C148.817 190.889 148.346 191.749 147.601 192.562ZM145.883 190.969C146.222 190.599 146.4 190.194 146.418 189.754C146.432 189.311 146.313 188.859 146.062 188.397C145.814 187.932 145.456 187.485 144.988 187.057C144.52 186.628 144.044 186.31 143.559 186.104C143.077 185.893 142.616 185.815 142.176 185.867C141.736 185.92 141.347 186.131 141.008 186.501C140.665 186.875 140.484 187.287 140.463 187.737C140.446 188.183 140.561 188.639 140.81 189.104C141.061 189.566 141.421 190.011 141.888 190.439C142.356 190.868 142.831 191.187 143.313 191.398C143.798 191.604 144.262 191.679 144.705 191.623C145.148 191.56 145.54 191.342 145.883 190.969ZM156.786 182.223L148.52 160.337L148.392 160.219L140.087 169.282L136.844 166.309L148.91 153.141L152.2 156.156L160.54 178.127L156.786 182.223ZM176.954 161.042C175.504 162.612 173.873 163.613 172.062 164.044C170.257 164.469 168.344 164.318 166.324 163.591C164.31 162.857 162.28 161.547 160.233 159.66C158.186 157.785 156.719 155.884 155.831 153.959C154.949 152.027 154.651 150.151 154.935 148.332C155.218 146.502 156.08 144.802 157.518 143.232C158.957 141.662 160.573 140.659 162.366 140.223C164.165 139.781 166.065 139.915 168.066 140.625C170.062 141.329 172.08 142.622 174.121 144.504C176.18 146.39 177.659 148.308 178.56 150.257C179.465 152.199 179.785 154.089 179.52 155.924C179.254 157.76 178.399 159.465 176.954 161.042ZM173.665 158.027C174.65 156.952 174.896 155.598 174.402 153.966C173.909 152.334 172.578 150.53 170.41 148.554C168.986 147.25 167.667 146.31 166.451 145.736C165.241 145.155 164.154 144.913 163.191 145.007C162.233 145.096 161.426 145.498 160.771 146.213C159.792 147.282 159.543 148.627 160.024 150.248C160.505 151.869 161.809 153.659 163.936 155.619C165.377 156.94 166.712 157.9 167.941 158.497C169.168 159.083 170.267 159.331 171.237 159.242C172.2 159.147 173.01 158.742 173.665 158.027ZM191.973 136.759L190.983 135.852C190.232 135.164 189.687 134.373 189.349 133.478C189.01 132.572 188.931 131.64 189.112 130.682C189.293 129.713 189.789 128.785 190.601 127.899C191.424 127.001 192.304 126.42 193.243 126.156C194.187 125.886 195.12 125.887 196.04 126.157C196.961 126.416 197.8 126.893 198.557 127.587L199.547 128.494C200.298 129.182 200.846 129.977 201.19 130.876C201.528 131.771 201.604 132.7 201.418 133.664C201.237 134.634 200.741 135.561 199.929 136.447C199.106 137.345 198.223 137.923 197.278 138.182C196.339 138.445 195.41 138.448 194.49 138.189C193.563 137.924 192.724 137.448 191.973 136.759ZM193.427 133.186L194.416 134.093C194.85 134.49 195.355 134.761 195.93 134.906C196.511 135.045 197.056 134.837 197.565 134.281C198.074 133.725 198.232 133.173 198.038 132.624C197.85 132.069 197.533 131.587 197.087 131.179L196.097 130.272C195.651 129.863 195.146 129.58 194.582 129.423C194.018 129.266 193.473 129.474 192.947 130.049C192.443 130.599 192.285 131.157 192.474 131.723C192.663 132.29 192.981 132.777 193.427 133.186ZM172.408 136.549L171.418 135.642C170.661 134.948 170.116 134.151 169.783 133.251C169.445 132.345 169.366 131.413 169.547 130.455C169.733 129.49 170.227 128.572 171.027 127.698C171.856 126.794 172.739 126.21 173.678 125.946C174.617 125.682 175.549 125.683 176.476 125.947C177.396 126.206 178.235 126.683 178.992 127.377L179.982 128.284C180.739 128.978 181.285 129.775 181.617 130.675C181.955 131.57 182.031 132.499 181.844 133.463C181.657 134.415 181.155 135.337 180.338 136.229C179.52 137.121 178.64 137.702 177.695 137.972C176.751 138.23 175.821 138.233 174.907 137.979C173.992 137.714 173.159 137.238 172.408 136.549ZM173.879 132.957L174.868 133.864C175.314 134.273 175.822 134.547 176.391 134.686C176.966 134.819 177.499 134.617 177.992 134.08C178.507 133.518 178.667 132.962 178.473 132.414C178.285 131.859 177.968 131.377 177.522 130.968L176.532 130.062C176.086 129.653 175.581 129.37 175.017 129.213C174.453 129.056 173.905 129.267 173.373 129.848C172.875 130.391 172.726 130.946 172.927 131.512C173.128 132.078 173.445 132.56 173.879 132.957ZM187.775 148.405L180.831 118.306L183.031 115.905L189.975 146.004L187.775 148.405Z" fill="black"/>
</g>
<defs>
<filter id="filter0_d_16_105" x="79.9508" y="87.2549" width="151.104" height="149.774" filterUnits="userSpaceOnUse" color-interpolation-filters="sRGB">
<feFlood flood-opacity="0" result="BackgroundImageFix"/>
<feColorMatrix in="SourceAlpha" type="matrix" values="0 0 0 0 0 0 0 0 0 0 0 0 0 0 0 0 0 0 127 0" result="hardAlpha"/>
<feOffset dy="4"/>
<feGaussianBlur stdDeviation="2"/>
<feComposite in2="hardAlpha" operator="out"/>
<feColorMatrix type="matrix" values="0 0 0 0 0 0 0 0 0 0 0 0 0 0 0 0 0 0 0.25 0"/>
<feBlend mode="normal" in2="BackgroundImageFix" result="effect1_dropShadow_16_105"/>
<feBlend mode="normal" in="SourceGraphic" in2="effect1_dropShadow_16_105" result="shape"/>
</filter>
<filter id="filter1_i_16_105" x="95" y="99.0002" width="15" height="19" filterUnits="userSpaceOnUse" color-interpolation-filters="sRGB">
<feFlood flood-opacity="0" result="BackgroundImageFix"/>
<feBlend mode="normal" in="SourceGraphic" in2="BackgroundImageFix" result="shape"/>
<feColorMatrix in="SourceAlpha" type="matrix" values="0 0 0 0 0 0 0 0 0 0 0 0 0 0 0 0 0 0 127 0" result="hardAlpha"/>
<feOffset dy="4"/>
<feGaussianBlur stdDeviation="2"/>
<feComposite in2="hardAlpha" operator="arithmetic" k2="-1" k3="1"/>
<feColorMatrix type="matrix" values="0 0 0 0 0 0 0 0 0 0 0 0 0 0 0 0 0 0 0.25 0"/>
<feBlend mode="normal" in2="shape" result="effect1_innerShadow_16_105"/>
</filter>
</defs>
</svg>
